<svg width="60" height="60" viewBox="0 0 60 60" fill="none" xmlns="http://www.w3.org/2000/svg">
<path d="M57.1875 36.5625H51.5625C51.3139 36.5625 51.0754 36.6613 50.8996 36.8371C50.7238 37.0129 50.625 37.2514 50.625 37.5H49.1344L47.7469 36.1125L47.1937 32.7844C47.1374 32.4511 47.0299 32.1286 46.875 31.8281V2.8125C46.875 2.56386 46.7762 2.3254 46.6004 2.14959C46.4246 1.97377 46.1861 1.875 45.9375 1.875H2.8125C2.56386 1.875 2.3254 1.97377 2.14959 2.14959C1.97377 2.3254 1.875 2.56386 1.875 2.8125V57.1875C1.875 57.4361 1.97377 57.6746 2.14959 57.8504C2.3254 58.0262 2.56386 58.125 2.8125 58.125H45.9375C46.1861 58.125 46.4246 58.0262 46.6004 57.8504C46.7762 57.6746 46.875 57.4361 46.875 57.1875V52.5H47.8125C48.061 52.4981 48.2994 52.4008 48.4781 52.2281L50.0719 50.625H50.625C50.625 50.8736 50.7238 51.1121 50.8996 51.2879C51.0754 51.4637 51.3139 51.5625 51.5625 51.5625H57.1875C57.4361 51.5625 57.6746 51.4637 57.8504 51.2879C58.0262 51.1121 58.125 50.8736 58.125 50.625V37.5C58.125 37.2514 58.0262 37.0129 57.8504 36.8371C57.6746 36.6613 57.4361 36.5625 57.1875 36.5625ZM45 56.25H3.75V3.75H45V30.1875C44.6509 30.0631 44.2831 29.9997 43.9125 30C43.2133 29.9997 42.5318 30.2197 41.9647 30.6286C41.3976 31.0375 40.9737 31.6147 40.7531 32.2781L40.3594 33.45C40.3301 33.5474 40.3143 33.6483 40.3125 33.75V35.625H33.75C33.0048 35.6272 32.2907 35.9243 31.7637 36.4512C31.2368 36.9782 30.9397 37.6923 30.9375 38.4375C30.9393 39.1317 31.2001 39.8003 31.6687 40.3125C31.1985 40.8237 30.9375 41.4929 30.9375 42.1875C30.9375 42.8821 31.1985 43.5513 31.6687 44.0625C31.3925 44.3643 31.1861 44.7232 31.0642 45.1138C30.9423 45.5043 30.9078 45.9169 30.9633 46.3223C31.0188 46.7276 31.1628 47.1158 31.3852 47.4592C31.6076 47.8026 31.9028 48.0929 32.25 48.3094C32.0062 48.7279 31.8768 49.2032 31.875 49.6875C31.8772 50.4327 32.1743 51.1468 32.7012 51.6738C33.2282 52.2007 33.9423 52.4978 34.6875 52.5H45V56.25ZM33.75 41.25H36.5625C36.8111 41.25 37.0496 41.3488 37.2254 41.5246C37.4012 41.7004 37.5 41.9389 37.5 42.1875C37.5 42.4361 37.4012 42.6746 37.2254 42.8504C37.0496 43.0262 36.8111 43.125 36.5625 43.125H33.75C33.5014 43.125 33.2629 43.0262 33.0871 42.8504C32.9113 42.6746 32.8125 42.4361 32.8125 42.1875C32.8125 41.9389 32.9113 41.7004 33.0871 41.5246C33.2629 41.3488 33.5014 41.25 33.75 41.25ZM32.8125 38.4375C32.8125 38.1889 32.9113 37.9504 33.0871 37.7746C33.2629 37.5988 33.5014 37.5 33.75 37.5H36.5625C36.8111 37.5 37.0496 37.5988 37.2254 37.7746C37.4012 37.9504 37.5 38.1889 37.5 38.4375C37.5 38.6861 37.4012 38.9246 37.2254 39.1004C37.0496 39.2762 36.8111 39.375 36.5625 39.375H33.75C33.5014 39.375 33.2629 39.2762 33.0871 39.1004C32.9113 38.9246 32.8125 38.6861 32.8125 38.4375ZM33.75 45H36.5625C36.8111 45 37.0496 45.0988 37.2254 45.2746C37.4012 45.4504 37.5 45.6889 37.5 45.9375C37.5 46.1861 37.4012 46.4246 37.2254 46.6004C37.0496 46.7762 36.8111 46.875 36.5625 46.875H33.75C33.5014 46.875 33.2629 46.7762 33.0871 46.6004C32.9113 46.4246 32.8125 46.1861 32.8125 45.9375C32.8125 45.6889 32.9113 45.4504 33.0871 45.2746C33.2629 45.0988 33.5014 45 33.75 45ZM34.6875 48.75H37.5C37.7486 48.75 37.9871 48.8488 38.1629 49.0246C38.3387 49.2004 38.4375 49.4389 38.4375 49.6875C38.4375 49.9361 38.3387 50.1746 38.1629 50.3504C37.9871 50.5262 37.7486 50.625 37.5 50.625H34.6875C34.4389 50.625 34.2004 50.5262 34.0246 50.3504C33.8488 50.1746 33.75 49.9361 33.75 49.6875C33.75 49.4389 33.8488 49.2004 34.0246 49.0246C34.2004 48.8488 34.4389 48.75 34.6875 48.75ZM50.625 48.75H49.6875C49.439 48.7519 49.2006 48.8492 49.0219 49.0219L47.4281 50.625H40.1437C40.3629 50.026 40.3688 49.3697 40.1605 48.7669C39.9521 48.164 39.5423 47.6515 39 47.3156C39.2438 46.8971 39.3732 46.4218 39.375 45.9375C39.3732 45.2433 39.1124 44.5747 38.6438 44.0625C39.114 43.5513 39.375 42.8821 39.375 42.1875C39.375 41.4929 39.114 40.8237 38.6438 40.3125C39.1124 39.8003 39.3732 39.1317 39.375 38.4375C39.3725 38.1177 39.3154 37.8006 39.2062 37.5H40.3125V41.0063C40.3157 41.8144 40.527 42.6081 40.926 43.3109C41.325 44.0137 41.8983 44.6019 42.5906 45.0187L45.4594 46.7438L46.4156 45.1312L43.5562 43.4156C43.1409 43.1648 42.7969 42.8116 42.5572 42.3897C42.3175 41.9678 42.1902 41.4915 42.1875 41.0063V33.9L42.5344 32.8688C42.6371 32.5607 42.8402 32.2959 43.111 32.1167C43.3819 31.9374 43.705 31.8541 44.0287 31.88C44.3525 31.9059 44.6582 32.0395 44.8971 32.2595C45.1361 32.4795 45.2944 32.7732 45.3469 33.0938L45.9469 36.7125C45.984 36.9057 46.075 37.0844 46.2094 37.2281L48.0844 39.1031C48.2631 39.2758 48.5015 39.3731 48.75 39.375H50.625V48.75ZM56.25 49.6875H52.5V38.4375H56.25V49.6875Z" fill="#76C15E"/>
<path d="M14.0622 29.0624H17.2328L18.8481 32.294C18.926 32.4498 19.0458 32.5809 19.194 32.6724C19.3422 32.764 19.513 32.8125 19.6872 32.8124H19.705C19.8819 32.809 20.0542 32.7556 20.202 32.6584C20.3498 32.5611 20.4671 32.4241 20.5403 32.263L23.3041 26.1843C24.0151 26.2718 24.7342 26.2718 25.4453 26.1843L28.2091 32.263C28.2823 32.4241 28.3996 32.5611 28.5474 32.6584C28.6952 32.7556 28.8675 32.809 29.0444 32.8124H29.0622C29.2364 32.8125 29.4072 32.764 29.5554 32.6724C29.7036 32.5809 29.8234 32.4498 29.9012 32.294L31.5166 29.0624H34.6872C34.8628 29.0625 35.0348 29.0133 35.1838 28.9205C35.3328 28.8276 35.4527 28.6947 35.5299 28.5371C35.6071 28.3794 35.6384 28.2032 35.6204 28.0285C35.6023 27.8539 35.5356 27.6878 35.4278 27.5493L31.6872 22.7315C32.7942 21.3535 33.489 19.6906 33.6916 17.9347C33.8942 16.1788 33.5963 14.4014 32.8323 12.8075C32.0682 11.2137 30.8691 9.86825 29.3733 8.92652C27.8775 7.98479 26.146 7.48511 24.3784 7.48511C22.6109 7.48511 20.8793 7.98479 19.3835 8.92652C17.8878 9.86825 16.6887 11.2137 15.9246 12.8075C15.1605 14.4014 14.8626 16.1788 15.0652 17.9347C15.2678 19.6906 15.9627 21.3535 17.0697 22.7315L13.3215 27.5493C13.2138 27.6878 13.147 27.8539 13.129 28.0285C13.1109 28.2032 13.1423 28.3794 13.2195 28.5371C13.2967 28.6947 13.4166 28.8276 13.5656 28.9205C13.7145 29.0133 13.8866 29.0625 14.0622 29.0624ZM30.9372 27.1874C30.7622 27.1864 30.5904 27.2345 30.4413 27.3261C30.2922 27.4177 30.1717 27.5493 30.0934 27.7058L29.0978 29.698L27.3166 25.7699C28.4273 25.4021 29.4594 24.8297 30.3597 24.0824L32.7709 27.1874H30.9372ZM24.3747 9.3749C25.858 9.3749 27.3081 9.81477 28.5415 10.6389C29.7748 11.463 30.7361 12.6343 31.3038 14.0048C31.8714 15.3752 32.02 16.8832 31.7306 18.3381C31.4412 19.7929 30.7269 21.1293 29.678 22.1782C28.6291 23.2271 27.2927 23.9414 25.8379 24.2308C24.383 24.5202 22.875 24.3717 21.5046 23.804C20.1341 23.2363 18.9628 22.275 18.1387 21.0417C17.3145 19.8083 16.8747 18.3583 16.8747 16.8749C16.8769 14.8865 17.6678 12.9801 19.0738 11.5741C20.4799 10.168 22.3862 9.37713 24.3747 9.3749ZM18.3897 24.0843C19.29 24.8316 20.3221 25.4039 21.4328 25.7718L19.6516 29.6999L18.6559 27.7058C18.5777 27.5493 18.4572 27.4177 18.3081 27.3261C18.159 27.2345 17.9872 27.1864 17.8122 27.1874H15.9775L18.3897 24.0843Z" fill="#76C15E"/>
<path d="M24.375 22.5C25.4875 22.5 26.5751 22.1701 27.5001 21.552C28.4251 20.9339 29.1461 20.0554 29.5718 19.0276C29.9976 17.9998 30.109 16.8688 29.8919 15.7776C29.6749 14.6865 29.1391 13.6842 28.3525 12.8975C27.5658 12.1109 26.5635 11.5751 25.4724 11.3581C24.3812 11.141 23.2502 11.2524 22.2224 11.6782C21.1946 12.1039 20.3161 12.8249 19.698 13.7499C19.0799 14.6749 18.75 15.7625 18.75 16.875C18.7515 18.3664 19.3446 19.7963 20.3992 20.8508C21.4537 21.9054 22.8836 22.4985 24.375 22.5ZM24.375 13.125C25.1167 13.125 25.8417 13.3449 26.4584 13.757C27.0751 14.169 27.5557 14.7547 27.8395 15.4399C28.1234 16.1252 28.1976 16.8792 28.0529 17.6066C27.9082 18.334 27.5511 19.0022 27.0266 19.5267C26.5022 20.0511 25.834 20.4083 25.1066 20.5529C24.3792 20.6976 23.6252 20.6234 22.9399 20.3396C22.2547 20.0557 21.669 19.5751 21.257 18.9584C20.8449 18.3417 20.625 17.6167 20.625 16.875C20.625 15.8804 21.0201 14.9266 21.7233 14.2234C22.4266 13.5201 23.3804 13.125 24.375 13.125Z" fill="#76C15E"/>
<path d="M7.5 37.5H12.1875V39.375H7.5V37.5Z" fill="#76C15E"/>
<path d="M15 37.5H30V39.375H15V37.5Z" fill="#76C15E"/>
<path d="M7.5 42.1875H19.6875V44.0625H7.5V42.1875Z" fill="#76C15E"/>
<path d="M22.5 42.1875H30V44.0625H22.5V42.1875Z" fill="#76C15E"/>
<path d="M7.5 46.875H15V48.75H7.5V46.875Z" fill="#76C15E"/>
</svg>
