<svg width="20" height="20" viewBox="0 0 20 20" fill="none" xmlns="http://www.w3.org/2000/svg">
<path d="M19.1667 10.8161H0.833333C0.373332 10.8161 0 10.4427 0 9.98272C0 9.52272 0.373332 9.14938 0.833333 9.14938H19.1667C19.6267 9.14938 20 9.52272 20 9.98272C20 10.4427 19.6267 10.8161 19.1667 10.8161Z" fill="#76C15E"/>
<path d="M19.1667 4.42707H0.833333C0.373332 4.42707 0 4.05374 0 3.59374C0 3.13374 0.373332 2.76041 0.833333 2.76041H19.1667C19.6267 2.76041 20 3.13374 20 3.59374C20 4.05374 19.6267 4.42707 19.1667 4.42707Z" fill="#76C15E"/>
<path d="M19.1667 17.2048H0.833333C0.373332 17.2048 0 16.8315 0 16.3715C0 15.9114 0.373332 15.5381 0.833333 15.5381H19.1667C19.6267 15.5381 20 15.9114 20 16.3715C20 16.8315 19.6267 17.2048 19.1667 17.2048Z" fill="#76C15E"/>
</svg>
