<svg width="60" height="60" viewBox="0 0 60 60" fill="none" xmlns="http://www.w3.org/2000/svg">
<path d="M55.9671 19.5902L53.35 17.7451L53.3137 14.5433C53.3116 14.3564 53.2537 14.1745 53.1474 14.0207C53.0412 13.867 52.8914 13.7486 52.7173 13.6806L49.735 12.5161L48.9364 9.41565C48.8897 9.23466 48.7901 9.07175 48.6502 8.94782C48.5103 8.82389 48.3365 8.7446 48.1512 8.72014L44.9779 8.29909L43.463 5.47839C43.3744 5.31383 43.2386 5.17946 43.0732 5.09247C42.9077 5.00548 42.7201 4.96983 42.5343 4.99007L39.3512 5.34163L37.202 2.96706C37.0765 2.82829 36.9123 2.73029 36.7306 2.68567C36.5489 2.64106 36.358 2.65188 36.1825 2.71675L33.1783 3.82405L30.5236 2.03483C30.3688 1.9305 30.1864 1.87476 29.9997 1.87476C29.813 1.87476 29.6306 1.9305 29.4757 2.03483L26.8207 3.82405L23.8163 2.71663C23.6408 2.65188 23.4499 2.64112 23.2682 2.68575C23.0865 2.73038 22.9223 2.82835 22.7968 2.96706L20.6481 5.34116L17.4652 4.99018C17.2793 4.96956 17.0916 5.00505 16.926 5.09208C16.7605 5.17911 16.6248 5.31369 16.5365 5.4785L15.0216 8.29921L11.8473 8.72026C11.662 8.74473 11.4883 8.82403 11.3484 8.94798C11.2085 9.07193 11.1088 9.23488 11.0622 9.41589L10.2637 12.5163L7.28137 13.6808C7.10732 13.7488 6.95755 13.8672 6.85129 14.0209C6.74503 14.1746 6.68712 14.3566 6.685 14.5434L6.64867 17.7452L4.03211 19.5903C3.87924 19.6981 3.7621 19.8491 3.69576 20.024C3.62941 20.1989 3.61689 20.3896 3.6598 20.5717L4.39457 23.6889L2.29891 26.1092C2.17664 26.2505 2.09938 26.4251 2.07704 26.6106C2.0547 26.7961 2.08829 26.9841 2.17352 27.1503L3.63379 29.9999L2.17352 32.8489C2.08829 33.0152 2.0547 33.2032 2.07704 33.3887C2.09938 33.5742 2.17664 33.7487 2.29891 33.89L4.39422 36.3114L3.65945 39.4285C3.61658 39.6106 3.62913 39.8013 3.69549 39.9761C3.76186 40.151 3.87901 40.302 4.03188 40.4098L6.64902 42.2549L6.68535 45.4567C6.68745 45.6435 6.74534 45.8255 6.85161 45.9792C6.95787 46.133 7.10765 46.2514 7.28172 46.3194L10.2644 47.4842L11.063 50.5847C11.1096 50.7657 11.2093 50.9286 11.3492 51.0525C11.4891 51.1764 11.6629 51.2557 11.8482 51.2802L15.022 51.7012L16.5368 54.5219C16.6255 54.6865 16.7612 54.8209 16.9267 54.9079C17.0921 54.9948 17.2797 55.0305 17.4655 55.0103L20.6486 54.6593L22.7978 57.0333C22.9234 57.172 23.0876 57.2699 23.2693 57.3145C23.4509 57.3591 23.6418 57.3484 23.8173 57.2836L26.8216 56.1763L29.4766 57.9655C29.6314 58.0698 29.8138 58.1256 30.0005 58.1256C30.1872 58.1256 30.3696 58.0698 30.5245 57.9655L33.1795 56.1763L36.1839 57.2837C36.3595 57.3483 36.5503 57.359 36.732 57.3144C36.9136 57.2698 37.0778 57.1719 37.2034 57.0333L39.3527 54.6592L42.5356 55.0107C42.7214 55.0312 42.9092 54.9957 43.0747 54.9087C43.2401 54.8216 43.3758 54.6871 43.4643 54.5224L44.9792 51.7017L48.1531 51.2807C48.3384 51.2562 48.5122 51.1769 48.6521 51.0529C48.792 50.929 48.8916 50.766 48.9382 50.585L49.7368 47.4846L52.7191 46.3201C52.8931 46.2521 53.0429 46.1337 53.1491 45.98C53.2554 45.8263 53.3133 45.6443 53.3154 45.4575L53.3518 42.2557L55.9689 40.4106C56.1218 40.3028 56.2389 40.1518 56.3053 39.9769C56.3716 39.802 56.3841 39.6113 56.3412 39.4292L55.6064 36.3121L57.7005 33.8905C57.8227 33.7492 57.9 33.5746 57.9223 33.3891C57.9447 33.2036 57.9111 33.0157 57.8259 32.8494L56.3656 29.9999L57.8259 27.1508C57.9111 26.9845 57.9447 26.7966 57.9223 26.6111C57.9 26.4256 57.8227 26.251 57.7005 26.1097L55.6052 23.6884L56.3399 20.5712C56.3827 20.3892 56.3701 20.1985 56.3037 20.0237C56.2372 19.8489 56.12 19.6979 55.9671 19.5902ZM55.8688 26.8584L54.4779 29.5724C54.41 29.7047 54.3745 29.8513 54.3745 30.0001C54.3745 30.1489 54.41 30.2955 54.4779 30.4278L55.8688 33.1418L53.8736 35.447C53.7765 35.5591 53.7074 35.6927 53.672 35.8368C53.6366 35.9808 53.6359 36.1312 53.6699 36.2756L54.3693 39.2423L51.8779 40.9989C51.7566 41.0844 51.6574 41.1974 51.5884 41.3288C51.5193 41.4601 51.4824 41.606 51.4807 41.7544L51.4456 44.8029L48.6053 45.9119C48.4669 45.966 48.3434 46.0522 48.2449 46.1634C48.1463 46.2746 48.0756 46.4076 48.0386 46.5514L47.2779 49.5046L44.2553 49.9055C44.108 49.9249 43.9674 49.9791 43.8452 50.0636C43.7229 50.1481 43.6225 50.2604 43.5522 50.3913L42.1108 53.0764L39.0808 52.7422C38.9334 52.7261 38.7842 52.7451 38.6455 52.7977C38.5069 52.8503 38.3827 52.935 38.2831 53.0449L36.2373 55.3049L33.3768 54.2502C33.2374 54.1989 33.0879 54.1815 32.9404 54.1993C32.793 54.2171 32.6519 54.2696 32.5287 54.3525L29.9997 56.057L27.4707 54.3527C27.3475 54.2697 27.2064 54.2172 27.0589 54.1994C26.9115 54.1817 26.7619 54.1992 26.6226 54.2505L23.7623 55.3052L21.7165 53.0454C21.6169 52.9355 21.4927 52.8508 21.354 52.7982C21.2154 52.7456 21.0662 52.7266 20.9188 52.7427L17.8887 53.0769L16.4462 50.3905C16.3759 50.2596 16.2755 50.1473 16.1533 50.0628C16.031 49.9783 15.8904 49.9241 15.7431 49.9046L12.7206 49.5037L11.9598 46.5506C11.9228 46.4068 11.8521 46.2738 11.7536 46.1626C11.655 46.0515 11.5315 45.9653 11.3931 45.9112L8.55285 44.8022L8.51922 41.7538C8.51755 41.6054 8.48068 41.4595 8.41164 41.3281C8.34259 41.1968 8.24335 41.0837 8.12207 40.9981L5.63066 39.2417L6.32992 36.2749C6.36399 36.1305 6.36329 35.9802 6.32788 35.8361C6.29247 35.6921 6.22337 35.5585 6.12625 35.4464L4.13055 33.1413L5.52145 30.4274C5.5894 30.295 5.62484 30.1484 5.62484 29.9996C5.62484 29.8509 5.5894 29.7042 5.52145 29.5719L4.13055 26.8584L6.12578 24.5532C6.22287 24.4411 6.29195 24.3075 6.32736 24.1634C6.36276 24.0194 6.36348 23.869 6.32945 23.7246L5.63008 20.7579L8.12148 19.0014C8.24275 18.9158 8.34198 18.8028 8.41102 18.6714C8.48007 18.5401 8.51695 18.3942 8.51863 18.2458L8.55379 15.1973L11.3941 14.0883C11.5324 14.0342 11.656 13.948 11.7545 13.8368C11.853 13.7257 11.9237 13.5926 11.9608 13.4488L12.7214 10.4957L15.7441 10.0948C15.8914 10.0753 16.032 10.0211 16.1542 9.93661C16.2765 9.85213 16.3769 9.73981 16.4472 9.60889L17.8886 6.92331L20.9186 7.25753C21.066 7.27358 21.2151 7.25452 21.3538 7.20191C21.4924 7.14931 21.6166 7.06464 21.7163 6.95483L23.762 4.69487L26.6226 5.74956C26.762 5.8008 26.9115 5.81824 27.0589 5.80046C27.2064 5.78267 27.3475 5.73017 27.4707 5.64725L29.9997 3.94276L32.5287 5.64702C32.6519 5.73001 32.793 5.78255 32.9404 5.80032C33.0879 5.81808 33.2374 5.80057 33.3768 5.74921L36.2371 4.69452L38.2829 6.95436C38.3825 7.0642 38.5067 7.14889 38.6454 7.2015C38.784 7.25411 38.9331 7.27315 39.0805 7.25706L42.1107 6.92284L43.5531 9.60925C43.6234 9.74016 43.7239 9.85249 43.8461 9.93696C43.9683 10.0214 44.1089 10.0756 44.2562 10.0951L47.2787 10.496L48.0395 13.4491C48.0766 13.593 48.1473 13.726 48.2458 13.8371C48.3444 13.9483 48.4679 14.0344 48.6063 14.0885L51.4465 15.1976L51.4802 18.246C51.4818 18.3944 51.5187 18.5402 51.5877 18.6716C51.6568 18.803 51.756 18.9161 51.8773 19.0016L54.3687 20.758L53.6695 23.7248C53.6354 23.8692 53.6361 24.0196 53.6715 24.1636C53.7069 24.3077 53.776 24.4412 53.8731 24.5533L55.8688 26.8584Z" fill="#76C15E"/>
<path d="M46.8746 29.9999V30.0393H48.7496V29.9999C48.7496 29.3459 48.7159 28.6923 48.6486 28.0417L46.7837 28.2353C46.8442 28.8216 46.8746 29.4106 46.8746 29.9999Z" fill="#76C15E"/>
<path d="M14.5708 36.8455L12.8574 37.6072C13.1236 38.2054 13.4209 38.7893 13.748 39.3564L15.3723 38.4196C15.0779 37.9092 14.8104 37.3838 14.5708 36.8455Z" fill="#76C15E"/>
<path d="M17.4346 43.917C17.9202 44.3556 18.4283 44.7686 18.9568 45.1544L20.062 43.6403C19.5863 43.2929 19.1288 42.921 18.6916 42.5261L17.4346 43.917Z" fill="#76C15E"/>
<path d="M42.5425 18.7107C42.9368 19.1487 43.3081 19.6069 43.6549 20.0834L45.1711 18.9802C44.7859 18.4515 44.3737 17.943 43.936 17.4568L42.5425 18.7107Z" fill="#76C15E"/>
<path d="M24.1772 47.8279C24.7998 48.0308 25.4325 48.201 26.0729 48.3377L26.4638 46.504C25.8879 46.3811 25.3189 46.228 24.7591 46.0454L24.1772 47.8279Z" fill="#76C15E"/>
<path d="M46.51 26.4912L48.3444 26.1032C48.2088 25.4626 48.0397 24.8295 47.8377 24.2065L46.0547 24.785C46.2362 25.3454 46.3882 25.9149 46.51 26.4912Z" fill="#76C15E"/>
<path d="M45.4219 23.1373L47.1343 22.3739C46.8677 21.7757 46.5699 21.192 46.2422 20.625L44.6191 21.5639C44.914 22.074 45.1819 22.5992 45.4219 23.1373Z" fill="#76C15E"/>
<path d="M28.0107 48.6455C28.6612 48.7138 29.3148 48.7486 29.9688 48.7498L29.9719 46.8748C29.3826 46.8739 28.7937 46.8426 28.2076 46.781L28.0107 48.6455Z" fill="#76C15E"/>
<path d="M16.3334 39.9014L14.8159 41.0029C15.2004 41.5325 15.6121 42.0417 16.0495 42.5285L17.4441 41.2752C17.0503 40.8368 16.6796 40.3782 16.3334 39.9014Z" fill="#76C15E"/>
<path d="M42.5492 16.0687C42.0632 15.6306 41.5547 15.2181 41.0258 14.8328L39.9224 16.3487C40.3984 16.6955 40.856 17.0669 41.2935 17.4613L42.5492 16.0687Z" fill="#76C15E"/>
<path d="M39.3816 13.7626C38.8151 13.4349 38.232 13.137 37.6345 12.8701L36.8701 14.5822C37.4078 14.8224 37.9325 15.0905 38.4422 15.3854L39.3816 13.7626Z" fill="#76C15E"/>
<path d="M24.7943 13.9428L24.2166 12.1592C23.5936 12.3612 22.9816 12.5959 22.3833 12.8623L23.1457 14.5752C23.6838 14.3357 24.2341 14.1246 24.7943 13.9428Z" fill="#76C15E"/>
<path d="M28.2447 13.215L28.0523 11.3499C27.4013 11.4172 26.7542 11.5184 26.1138 11.6531L26.5005 13.4879C27.0767 13.3665 27.6589 13.2754 28.2447 13.215Z" fill="#76C15E"/>
<path d="M31.9685 11.3521C31.3179 11.2844 30.6643 11.2504 30.0102 11.25L30.0093 13.125C30.5986 13.1254 31.1874 13.1561 31.7735 13.217L31.9685 11.3521Z" fill="#76C15E"/>
<path d="M35.8022 12.1652C35.1796 11.9631 34.5468 11.7936 33.9064 11.6575L33.5171 13.4916C34.0931 13.6141 34.6623 13.7666 35.2224 13.9486L35.8022 12.1652Z" fill="#76C15E"/>
<path d="M43.6343 39.9446L45.1483 41.0509C45.5342 40.5224 45.8924 39.9743 46.2213 39.4086L44.6004 38.4663C44.3042 38.9755 43.9817 39.469 43.6343 39.9446Z" fill="#76C15E"/>
<path d="M38.4111 44.6325L39.3473 46.2571C39.9144 45.9302 40.464 45.5739 40.9939 45.1898L39.8936 43.6719C39.4164 44.0176 38.9216 44.3382 38.4111 44.6325Z" fill="#76C15E"/>
<path d="M20.5996 46.2268C21.1657 46.5552 21.7485 46.8538 22.3457 47.1214L23.112 45.4104C22.5746 45.1697 22.0502 44.901 21.5409 44.6055L20.5996 46.2268Z" fill="#76C15E"/>
<path d="M41.2676 42.5624L42.5201 43.9569C43.0069 43.5198 43.4707 43.0578 43.9097 42.5726L42.519 41.3149C42.1238 41.7521 41.706 42.1685 41.2676 42.5624Z" fill="#76C15E"/>
<path d="M45.4062 36.896L47.1172 37.663C47.385 37.0655 47.6212 36.4544 47.8248 35.8322L46.0428 35.2498C45.8595 35.8093 45.6471 36.3588 45.4062 36.896Z" fill="#76C15E"/>
<path d="M35.188 46.0627L35.7636 47.8471C36.3869 47.646 36.9991 47.4121 37.5978 47.1465L36.8373 45.4326C36.299 45.6715 35.7484 45.8818 35.188 46.0627Z" fill="#76C15E"/>
<path d="M13.4933 26.4727L11.6596 26.0833C11.5237 26.7235 11.4214 27.3704 11.353 28.0213L13.2177 28.217C13.2791 27.6311 13.3711 27.0489 13.4933 26.4727Z" fill="#76C15E"/>
<path d="M13.125 29.9999V29.9802H11.25V29.9999C11.25 30.6471 11.283 31.2938 11.349 31.9376L13.2142 31.7458C13.1548 31.1657 13.125 30.583 13.125 29.9999Z" fill="#76C15E"/>
<path d="M31.7363 46.7866L31.9268 48.652C32.5778 48.5853 33.2248 48.4848 33.8654 48.3508L33.4811 46.5156C32.9046 46.6362 32.3222 46.7266 31.7363 46.7866Z" fill="#76C15E"/>
<path d="M14.5857 23.1211L12.8738 22.356C12.6068 22.9538 12.3714 23.5651 12.1685 24.1876L13.9512 24.7683C14.1338 24.2085 14.3456 23.6587 14.5857 23.1211Z" fill="#76C15E"/>
<path d="M13.4858 33.4902L11.6509 33.8761C11.7858 34.517 11.9542 35.1503 12.1555 35.7735L13.9397 35.1967C13.7585 34.6363 13.607 34.0666 13.4858 33.4902Z" fill="#76C15E"/>
<path d="M46.502 33.5452L48.3356 33.9373C48.4722 33.2971 48.5753 32.6503 48.6444 31.9995L46.7798 31.8018C46.7176 32.3873 46.6249 32.9693 46.502 33.5452Z" fill="#76C15E"/>
<path d="M18.7177 17.4505L17.4638 16.0566C16.9775 16.4944 16.5142 16.9571 16.0757 17.4427L17.4678 18.6987C17.8626 18.2614 18.2798 17.8447 18.7177 17.4505Z" fill="#76C15E"/>
<path d="M16.3541 20.0699L14.8389 18.9653C14.4536 19.4942 14.096 20.0427 13.7676 20.6087L15.3897 21.5492C15.6852 21.0397 16.0072 20.5459 16.3541 20.0699Z" fill="#76C15E"/>
<path d="M21.5721 15.3767L20.6346 13.7529C20.0678 14.0806 19.5185 14.4375 18.9888 14.8222L20.091 16.339C20.5676 15.9927 21.062 15.6715 21.5721 15.3767Z" fill="#76C15E"/>
<path d="M44.9995 29.9998C44.9995 27.033 44.1198 24.1329 42.4716 21.6662C40.8233 19.1995 38.4807 17.2769 35.7398 16.1416C32.9989 15.0063 29.9829 14.7092 27.0732 15.288C24.1634 15.8668 21.4907 17.2954 19.3929 19.3932C17.2951 21.4909 15.8665 24.1637 15.2877 27.0734C14.709 29.9831 15.006 32.9991 16.1413 35.74C17.2766 38.4809 19.1992 40.8236 21.666 42.4718C24.1327 44.12 27.0328 44.9998 29.9995 44.9998C33.9764 44.9952 37.7891 43.4134 40.6011 40.6014C43.4132 37.7893 44.995 33.9766 44.9995 29.9998ZM29.9995 43.1248C27.4036 43.1248 24.8661 42.355 22.7077 40.9128C20.5493 39.4706 18.867 37.4208 17.8736 35.0225C16.8802 32.6242 16.6203 29.9852 17.1267 27.4392C17.6331 24.8932 18.8832 22.5546 20.7187 20.719C22.5543 18.8834 24.893 17.6334 27.439 17.127C29.985 16.6205 32.624 16.8804 35.0222 17.8738C37.4205 18.8672 39.4704 20.5495 40.9126 22.7079C42.3548 24.8663 43.1245 27.4039 43.1245 29.9998C43.1206 33.4795 41.7365 36.8156 39.2759 39.2762C36.8154 41.7368 33.4793 43.1208 29.9995 43.1248Z" fill="#76C15E"/>
<path d="M38.5509 24.261C38.0229 23.7344 37.3077 23.4387 36.5621 23.4387C35.8164 23.4387 35.1012 23.7344 34.5733 24.261L26.2496 32.5849L24.4884 30.8235C23.9609 30.2961 23.2455 29.9997 22.4996 29.9997C21.7536 29.9997 21.0383 30.2961 20.5108 30.8235C19.9833 31.351 19.687 32.0664 19.687 32.8123C19.687 33.5583 19.9833 34.2737 20.5108 34.8011L24.2608 38.5511C24.522 38.8123 24.832 39.0195 25.1733 39.1608C25.5145 39.3022 25.8802 39.3749 26.2496 39.3749C26.6189 39.3749 26.9847 39.3022 27.3259 39.1608C27.6671 39.0195 27.9772 38.8123 28.2384 38.5511L38.5509 28.2386C38.812 27.9774 39.0192 27.6674 39.1606 27.3262C39.3019 26.9849 39.3747 26.6192 39.3747 26.2498C39.3747 25.8805 39.3019 25.5147 39.1606 25.1735C39.0192 24.8323 38.812 24.5222 38.5509 24.261ZM37.2249 26.9126L26.9124 37.2251C26.7366 37.4009 26.4982 37.4996 26.2496 37.4996C26.001 37.4996 25.7626 37.4009 25.5868 37.2251L21.8368 33.4751C21.6642 33.2986 21.5682 33.0612 21.5696 32.8144C21.571 32.5676 21.6697 32.3313 21.8443 32.1568C22.0188 31.9823 22.2551 31.8836 22.502 31.8823C22.7488 31.8809 22.9862 31.9769 23.1626 32.1495L25.5869 34.5735C25.7627 34.7493 26.0011 34.8481 26.2498 34.8481C26.4984 34.8481 26.7368 34.7493 26.9126 34.5735L35.8994 25.587C35.9859 25.4975 36.0893 25.426 36.2037 25.3769C36.3181 25.3278 36.4411 25.3019 36.5656 25.3008C36.69 25.2998 36.8135 25.3235 36.9287 25.3706C37.0439 25.4178 37.1486 25.4874 37.2366 25.5754C37.3246 25.6634 37.3943 25.7681 37.4414 25.8833C37.4885 25.9985 37.5123 26.122 37.5112 26.2464C37.5101 26.3709 37.4842 26.4939 37.4351 26.6083C37.386 26.7227 37.3145 26.8262 37.225 26.9126H37.2249Z" fill="#76C15E"/>
<path d="M30 7.5C17.5935 7.5 7.5 17.5935 7.5 30C7.5 42.4065 17.5935 52.5 30 52.5C42.4065 52.5 52.5 42.4065 52.5 30C52.5 17.5935 42.4065 7.5 30 7.5ZM30 50.625C18.6273 50.625 9.375 41.3727 9.375 30C9.375 18.6273 18.6273 9.375 30 9.375C41.3727 9.375 50.625 18.6273 50.625 30C50.625 41.3727 41.3727 50.625 30 50.625Z" fill="#76C15E"/>
</svg>
