<svg width="60" height="60" viewBox="0 0 60 60" fill="none" xmlns="http://www.w3.org/2000/svg">
<path d="M55.0155 14.9515H54.4073C54.0477 13.6888 53.5455 12.4773 52.9071 11.332L53.3394 10.8996C53.834 10.4052 54.1062 9.74577 54.1062 9.04278C54.1062 8.33979 53.834 7.68051 53.339 7.18552L50.4586 4.30852C49.964 3.81084 49.3038 3.53686 48.5995 3.53686C47.8953 3.53686 47.235 3.81084 46.7428 4.30606L46.311 4.73789C45.1648 4.09747 43.9529 3.59428 42.691 3.23488V2.62681C42.6912 1.17841 41.5129 0 40.0644 0H35.992C34.5436 0 33.3651 1.17841 33.3651 2.62681V3.23488C32.1035 3.59417 30.8909 4.09747 29.7424 4.73836L29.3126 4.30852C28.8177 3.81084 28.1575 3.53686 27.4533 3.53698C26.7491 3.53698 26.0889 3.81107 25.5968 4.30618L22.7169 7.18611C22.2223 7.68051 21.9501 8.3399 21.9501 9.04289C21.9501 9.74588 22.2223 10.4052 22.7168 10.8996L23.149 11.3319C22.5079 12.4807 22.0054 13.6924 21.6479 14.9515H21.0375C19.5891 14.9515 18.4106 16.1299 18.4106 17.5783V21.6542C18.4106 23.1026 19.5891 24.281 21.0375 24.281H21.6479C22.0054 25.5399 22.5079 26.7516 23.149 27.9006L22.7168 28.3329C22.2222 28.8273 21.95 29.4867 21.95 30.1897C21.95 30.8925 22.2222 31.5519 22.7167 32.0463L25.5943 34.9239C26.0889 35.4216 26.749 35.6956 27.4532 35.6956H27.4533C28.1575 35.6956 28.8178 35.4216 29.3101 34.9264L29.7423 34.4941C30.892 35.1355 32.1046 35.6382 33.365 35.9956V36.6057C33.365 38.0541 34.5434 39.2326 35.9918 39.2326H40.0642C41.5126 39.2326 42.691 38.0541 42.691 36.6057V35.9956C43.9518 35.638 45.1635 35.1357 46.311 34.4945L46.7404 34.9239C47.235 35.4216 47.8952 35.6956 48.5994 35.6956C49.3037 35.6956 49.964 35.4215 50.4557 34.9268L53.3394 32.0463C53.8339 31.5518 54.1061 30.8924 54.1061 30.1895C54.1061 29.4866 53.8339 28.8273 53.3394 28.3329L52.907 27.9005C53.5454 26.7551 54.0475 25.5436 54.4072 24.281H55.0153C56.4637 24.281 57.6422 23.1026 57.6422 21.6542V17.5783C57.6423 16.1299 56.464 14.9515 55.0155 14.9515ZM40.3475 36.6056C40.3475 36.7591 40.2179 36.8887 40.0644 36.8887H35.992C35.8384 36.8887 35.7088 36.7591 35.7088 36.6056V35.0842V27.6966C35.7088 27.2065 35.4039 26.7682 34.9446 26.5978C31.7956 25.43 29.6799 22.3993 29.6799 19.0565C29.6799 16.4074 30.9991 13.924 33.208 12.4141C33.3071 12.3463 33.3948 12.291 33.4714 12.2457C33.4672 12.398 33.4564 12.5428 33.4507 12.6184C33.4419 12.7374 33.4349 12.8312 33.4349 12.9244V18.4552C33.4349 20.9937 35.4185 23.1138 37.9505 23.2817C38.0021 23.2851 38.0539 23.2851 38.1056 23.2817C40.6359 23.1139 42.6179 20.9938 42.6179 18.4552V12.9244C42.6179 12.8317 42.611 12.7384 42.6023 12.6202C42.5967 12.5443 42.5859 12.3986 42.5818 12.2455C42.6582 12.2908 42.7454 12.346 42.8442 12.4136C45.0537 13.9239 46.3729 16.4072 46.3729 19.0564C46.3729 22.3989 44.2584 25.4296 41.1113 26.5978C40.652 26.7683 40.3472 27.2065 40.3472 27.6964V35.0841V36.6056H40.3475ZM55.2986 21.6542C55.2986 21.805 55.1663 21.9373 55.0155 21.9373H53.4975C52.95 21.9373 52.4754 22.3164 52.3545 22.8504C51.9834 24.4902 51.3407 26.0407 50.4441 27.459C50.1514 27.9221 50.2186 28.5263 50.606 28.9138L51.6824 29.9901C51.7522 30.0599 51.7626 30.145 51.7626 30.1895C51.7626 30.234 51.7522 30.3191 51.6827 30.3885L48.7966 33.2715C48.7306 33.3378 48.6529 33.3518 48.5995 33.3518C48.5462 33.3518 48.4686 33.3378 48.4002 33.2689L47.3238 32.1926C46.9358 31.8047 46.331 31.7379 45.8679 32.0313C44.8676 32.6652 43.8029 33.1681 42.6912 33.5398V28.476C46.3267 26.784 48.7168 23.0971 48.7168 19.0563C48.7168 15.6325 47.0159 12.4259 44.1671 10.4786C43.7307 10.1804 42.4036 9.27304 41.2429 9.94111C40.1031 10.5973 40.2167 12.1356 40.2651 12.7926C40.2693 12.8496 40.2734 12.8976 40.2744 12.9244V18.4552C40.2744 19.7379 39.294 20.8133 38.0282 20.9369C36.7606 20.8131 35.7787 19.7377 35.7787 18.4552L35.7786 12.9328C35.7796 12.8976 35.7838 12.8496 35.7881 12.7923C35.8369 12.1357 35.9514 10.5983 34.8126 9.9417C33.6524 9.27246 32.3233 10.1802 31.886 10.4786C29.0371 12.426 27.3362 15.6326 27.3362 19.0564C27.3362 23.0978 29.7276 26.785 33.3651 28.4764V33.54C32.2532 33.1683 31.1872 32.6651 30.1839 32.0309C29.9911 31.909 29.774 31.8496 29.5581 31.8496C29.2554 31.8496 28.9551 31.9666 28.7291 32.1928L27.6505 33.2715C27.5846 33.3379 27.5069 33.3519 27.4534 33.3519C27.4 33.3519 27.3225 33.3379 27.2541 33.2691L24.3742 30.3891C24.3042 30.3193 24.2938 30.2341 24.2938 30.1897C24.2938 30.1451 24.3042 30.0601 24.3742 29.9901L25.4504 28.9138C25.8378 28.5263 25.9051 27.9221 25.6123 27.459C24.7112 26.0332 24.0685 24.4834 23.7023 22.8524C23.5823 22.3174 23.1073 21.9372 22.559 21.9372H21.0377C20.8869 21.9372 20.7546 21.8049 20.7546 21.6541V17.5781C20.7546 17.4246 20.8842 17.295 21.0377 17.295H22.559C23.1073 17.295 23.5822 16.9148 23.7023 16.3798C24.0685 14.7488 24.7111 13.1988 25.6123 11.7732C25.9051 11.3101 25.8378 10.7059 25.4504 10.3184L24.374 9.24211C24.3042 9.17227 24.2938 9.08719 24.2938 9.04266C24.2938 8.99813 24.3042 8.91305 24.3742 8.84309L27.2566 5.96059C27.3225 5.89426 27.4001 5.88032 27.4535 5.88032C27.507 5.88032 27.5846 5.89426 27.653 5.96305L28.7292 7.03939C29.1169 7.42692 29.7211 7.49407 30.1841 7.20134C31.608 6.30113 33.1596 5.6572 34.7954 5.28772C35.3297 5.16702 35.7091 4.6923 35.7091 4.1447V2.62681C35.7091 2.4733 35.8387 2.34369 35.9922 2.34369H40.0646C40.2181 2.34369 40.3477 2.4733 40.3477 2.62681V4.14493C40.3477 4.69265 40.727 5.16725 41.2613 5.28795C42.8986 5.65779 44.4485 6.30136 45.8682 7.20099C46.3314 7.49442 46.9361 7.42762 47.3241 7.03974L48.4027 5.96094C48.4687 5.89462 48.5464 5.88067 48.5997 5.88067C48.6532 5.88067 48.7307 5.89462 48.7996 5.96387L51.6826 8.84345C51.7525 8.91329 51.7629 8.99836 51.7629 9.04289C51.7629 9.08742 51.7525 9.1725 51.6825 9.24246L50.6063 10.3188C50.2189 10.7062 50.1516 11.3104 50.4443 11.7735C51.3408 13.1918 51.9837 14.7423 52.3548 16.3822C52.4756 16.9162 52.9502 17.2953 53.4977 17.2953H55.0157C55.1692 17.2953 55.2988 17.4249 55.2988 17.5784V21.6542H55.2986Z" fill="#76C15E"/>
<path d="M44.8564 51.5988C44.3988 52.0564 44.3988 52.7984 44.8564 53.2562C45.0853 53.4849 45.3851 53.5994 45.685 53.5994C45.9849 53.5994 46.2848 53.4849 46.5137 53.2562L46.5169 53.2529C46.9746 52.7953 46.9729 52.0549 46.5152 51.5972C46.0574 51.1396 45.314 51.1414 44.8564 51.5988Z" fill="#76C15E"/>
<path d="M50.2849 40.2469L40.9815 45.0247C40.1929 44.2079 39.0878 43.6984 37.8655 43.6984H31.4911C31.1342 43.6984 31.047 43.67 31.0411 43.668C30.9894 43.6408 30.8261 43.4873 30.695 43.364L30.6368 43.3094C25.4798 38.4548 21.1234 38.7624 16.1695 40.7175C15.3679 41.0339 15.3525 41.0346 14.5475 41.069L13.1062 41.07C12.6955 39.8313 11.527 38.9348 10.1523 38.9348H5.46537C3.75131 38.9348 2.35693 40.3308 2.35693 42.0467V54.3474C2.35693 56.0613 3.75131 57.4558 5.46537 57.4558H10.1523C11.5269 57.4558 12.6953 56.5604 13.106 55.3232H15.7427C15.9755 55.3232 15.9755 55.3232 16.2463 55.3995C16.3448 55.4273 16.4645 55.461 16.6192 55.5026L28.7471 58.7472C29.2817 58.8916 29.772 59.0337 30.2463 59.1711C31.8001 59.6213 33.1063 59.9998 34.4676 59.9998C36.0062 59.9998 37.6151 59.5163 39.7311 58.1061C39.7413 58.0993 39.7514 58.0923 39.7615 58.0851L42.0769 56.4341C42.6038 56.0583 42.7264 55.3266 42.3506 54.7996C41.9748 54.2725 41.2429 54.1501 40.7162 54.5259L38.4162 56.1659C35.3455 58.2083 34.0416 57.8307 30.8985 56.92C30.4143 56.7797 29.9137 56.6346 29.3558 56.4839L17.2269 53.2392C17.0849 53.201 16.9735 53.1696 16.8821 53.1438C16.4396 53.0191 16.2741 52.9797 15.7428 52.9797H13.2641V43.4147H14.5305C14.5474 43.4147 14.564 43.4143 14.5809 43.4136L14.6477 43.4108C15.6301 43.3688 15.9049 43.342 17.0301 42.8978C21.381 41.1808 24.7395 40.9768 29.032 45.0176L29.09 45.0721C29.8236 45.7615 30.246 46.0423 31.4912 46.0423H37.8656C38.6137 46.0423 39.2661 46.4576 39.6061 47.0694C39.6098 47.0762 39.614 47.0827 39.6177 47.0895C39.7696 47.3703 39.8561 47.6917 39.8561 48.0329C39.8561 49.1287 38.9633 50.0201 37.8657 50.0201H27.5351C26.888 50.0201 26.3632 50.5448 26.3632 51.192C26.3632 51.8392 26.888 52.3638 27.5351 52.3638H37.8657C40.2556 52.3638 42.1998 50.421 42.1998 48.0329C42.1998 47.7083 42.1628 47.3924 42.0948 47.0881L51.3556 42.3321C52.2322 41.8821 53.4308 41.9304 54.0258 42.896C54.5522 43.7471 54.2626 44.8784 53.3527 45.5272L49.2903 48.4204C48.7631 48.7959 48.64 49.5276 49.0155 50.0548C49.2441 50.3758 49.6048 50.547 49.971 50.547C50.2062 50.547 50.4436 50.4763 50.6497 50.3296L54.7126 47.436C56.6422 46.0603 57.2037 43.5786 56.0199 41.6649C54.8558 39.7756 52.3905 39.166 50.2849 40.2469ZM10.9203 54.3474C10.9203 54.762 10.5686 55.1122 10.1523 55.1122H5.46537C5.05077 55.1122 4.70062 54.7619 4.70062 54.3474V42.0468C4.70062 41.6233 5.04374 41.2786 5.46537 41.2786H10.1523C10.5686 41.2786 10.9203 41.6303 10.9203 42.0468V54.3474Z" fill="#76C15E"/>
</svg>
