<svg width="60" height="60" viewBox="0 0 60 60" fill="none" xmlns="http://www.w3.org/2000/svg">
<path d="M51.8916 27.7146C53.6486 26.48 54.812 24.4261 54.812 22.1111C54.812 18.324 51.7491 15.2611 47.962 15.2611C44.1749 15.2611 41.112 18.324 41.112 22.1111C41.112 24.4261 42.2636 26.48 44.0324 27.7146C42.5247 28.237 41.1476 29.0443 39.9842 30.089C38.3815 28.7237 36.4939 27.679 34.4282 27.0617C36.9331 25.5421 38.6189 22.776 38.6189 19.6299C38.6189 14.8337 34.7368 10.9517 29.9406 10.9517C25.1444 10.9517 21.2624 14.8456 21.2624 19.6299C21.2624 22.776 22.9363 25.5421 25.4531 27.0617C23.4112 27.679 21.5473 28.7118 19.9565 30.0534C18.793 29.0324 17.4397 28.237 15.9557 27.7265C17.7127 26.4918 18.8761 24.438 18.8761 22.123C18.8761 18.3359 15.8132 15.273 12.0261 15.273C8.23902 15.273 5.1761 18.3359 5.1761 22.123C5.1761 24.438 6.32766 26.4918 8.09656 27.7265C3.38346 29.3529 0 33.8286 0 39.0878V39.8713C0 39.8951 0.0237436 39.9188 0.0474871 39.9188H14.5667C14.4836 40.5718 14.4361 41.2485 14.4361 41.9251V42.7324C14.4361 46.2227 17.2616 49.0482 20.7519 49.0482H39.1531C42.6435 49.0482 45.4689 46.2227 45.4689 42.7324V41.9251C45.4689 41.2485 45.4214 40.5718 45.3383 39.9188H59.9525C59.9763 39.9188 60 39.8951 60 39.8713V39.0878C59.9763 33.8167 56.6047 29.3411 51.8916 27.7146ZM43.0115 22.0993C43.0115 19.3688 45.2315 17.1487 47.962 17.1487C50.6925 17.1487 52.9125 19.3688 52.9125 22.0993C52.9125 24.7942 50.74 26.9904 48.057 27.0498C48.0214 27.0498 47.9976 27.0498 47.962 27.0498C47.9264 27.0498 47.9027 27.0498 47.867 27.0498C45.1721 27.0023 43.0115 24.806 43.0115 22.0993ZM23.1381 19.6299C23.1381 15.8903 26.1773 12.8511 29.9169 12.8511C33.6565 12.8511 36.6957 15.8903 36.6957 19.6299C36.6957 23.239 33.8583 26.195 30.3087 26.3969C30.1781 26.3969 30.0475 26.3969 29.9169 26.3969C29.7863 26.3969 29.6557 26.3969 29.5251 26.3969C25.9755 26.195 23.1381 23.239 23.1381 19.6299ZM7.03997 22.0993C7.03997 19.3688 9.25999 17.1487 11.9905 17.1487C14.721 17.1487 16.941 19.3688 16.941 22.0993C16.941 24.7942 14.7685 26.9904 12.0855 27.0498C12.0499 27.0498 12.0261 27.0498 11.9905 27.0498C11.9549 27.0498 11.9311 27.0498 11.8955 27.0498C9.2125 27.0023 7.03997 24.806 7.03997 22.0993ZM14.8991 38.0075H1.92323C2.45746 32.9501 6.7313 28.9849 11.9193 28.9493C11.943 28.9493 11.9668 28.9493 11.9905 28.9493C12.0142 28.9493 12.038 28.9493 12.0617 28.9493C14.5311 28.9612 16.7867 29.8753 18.5319 31.3593C16.8223 33.2113 15.552 35.4906 14.8991 38.0075ZM43.5457 42.7324C43.5457 45.1661 41.5631 47.1487 39.1294 47.1487H20.7281C18.2944 47.1487 16.3118 45.1661 16.3118 42.7324V41.9251C16.3118 34.5528 22.2002 28.5219 29.5251 28.3082C29.6557 28.3201 29.7982 28.3201 29.9288 28.3201C30.0594 28.3201 30.2018 28.3201 30.3324 28.3082C37.6573 28.5219 43.5457 34.5528 43.5457 41.9251V42.7324ZM44.9585 38.0075C44.3055 35.5025 43.059 33.2587 41.3613 31.4067C43.1183 29.8872 45.3977 28.973 47.8908 28.9493C47.9145 28.9493 47.9383 28.9493 47.962 28.9493C47.9858 28.9493 48.0095 28.9493 48.0332 28.9493C53.2212 28.9849 57.4951 32.9501 58.0293 38.0075H44.9585Z" fill="#76C15E"/>
</svg>
