<svg width="20" height="20" viewBox="0 0 20 20" fill="none" xmlns="http://www.w3.org/2000/svg">
<g clip-path="url(#clip0)">
<path d="M19.7556 18.578L14.0682 12.8906C15.1699 11.5298 15.8332 9.8006 15.8332 7.9173C15.8332 3.55235 12.2815 0.000701904 7.91656 0.000701904C3.55161 0.000701904 0 3.55231 0 7.91726C0 12.2822 3.55165 15.8339 7.9166 15.8339C9.7999 15.8339 11.5291 15.1706 12.8899 14.0689L18.5773 19.7563C18.7398 19.9188 18.9531 20.0005 19.1665 20.0005C19.3798 20.0005 19.5932 19.9188 19.7557 19.7563C20.0815 19.4305 20.0815 18.9038 19.7556 18.578ZM7.9166 14.1672C4.46996 14.1672 1.66666 11.3639 1.66666 7.91726C1.66666 4.47062 4.46996 1.66733 7.9166 1.66733C11.3632 1.66733 14.1665 4.47062 14.1665 7.91726C14.1665 11.3639 11.3632 14.1672 7.9166 14.1672Z" fill="black"/>
</g>
<defs>
<clipPath id="clip0">
<rect width="20" height="20" fill="white"/>
</clipPath>
</defs>
</svg>
