<svg width="20" height="20" viewBox="0 0 20 20" fill="none" xmlns="http://www.w3.org/2000/svg">
<path d="M10 0C4.48613 0 0 4.4859 0 10C0 15.5141 4.48613 20 10 20C15.5141 20 20 15.5141 20 10C20 4.4859 15.5139 0 10 0ZM10 18.5402C5.29102 18.5402 1.45984 14.709 1.45984 10C1.45984 5.29102 5.29102 1.45984 10 1.45984C14.709 1.45984 18.5402 5.29098 18.5402 9.99977C18.5402 14.709 14.709 18.5402 10 18.5402Z" fill="#76C15E"/>
<path d="M13.4063 9.99999H10.2433V5.62042C10.2433 5.21726 9.91653 4.8905 9.51337 4.8905C9.11021 4.8905 8.78345 5.21726 8.78345 5.62042V10.7299C8.78345 11.1331 9.11021 11.4598 9.51337 11.4598H13.4063C13.8095 11.4598 14.1362 11.1331 14.1362 10.7299C14.1362 10.3268 13.8095 9.99999 13.4063 9.99999Z" fill="#76C15E"/>
</svg>
