<svg width="90" height="30" viewBox="0 0 90 30" fill="none" xmlns="http://www.w3.org/2000/svg">
<rect width="90" height="30" rx="5" fill="#F8FEB0"/>
<path d="M21.0625 21H19.5547V15.7422H13.8203V21H12.3203V9.625H13.8203V14.5156H19.5547V9.625H21.0625V21ZM23.1172 16.6953C23.1172 15.8672 23.2786 15.1224 23.6016 14.4609C23.9297 13.7995 24.3828 13.2891 24.9609 12.9297C25.5443 12.5703 26.2083 12.3906 26.9531 12.3906C28.1042 12.3906 29.0339 12.7891 29.7422 13.5859C30.4557 14.3828 30.8125 15.4427 30.8125 16.7656V16.8672C30.8125 17.6901 30.6536 18.4297 30.3359 19.0859C30.0234 19.737 29.5729 20.2448 28.9844 20.6094C28.401 20.974 27.7292 21.1562 26.9688 21.1562C25.8229 21.1562 24.8932 20.7578 24.1797 19.9609C23.4714 19.1641 23.1172 18.1094 23.1172 16.7969V16.6953ZM24.5703 16.8672C24.5703 17.8047 24.7865 18.5573 25.2188 19.125C25.6562 19.6927 26.2396 19.9766 26.9688 19.9766C27.7031 19.9766 28.2865 19.6901 28.7188 19.1172C29.151 18.5391 29.3672 17.7318 29.3672 16.6953C29.3672 15.7682 29.1458 15.0182 28.7031 14.4453C28.2656 13.8672 27.6823 13.5781 26.9531 13.5781C26.2396 13.5781 25.6641 13.862 25.2266 14.4297C24.7891 14.9974 24.5703 15.8099 24.5703 16.8672ZM32.7578 21V12.5469H36.0547C37.1797 12.5469 38.0417 12.7448 38.6406 13.1406C39.2448 13.5312 39.5469 14.1068 39.5469 14.8672C39.5469 15.2578 39.4297 15.612 39.1953 15.9297C38.9609 16.2422 38.6146 16.4818 38.1562 16.6484C38.6667 16.7682 39.0755 17.0026 39.3828 17.3516C39.6953 17.7005 39.8516 18.1172 39.8516 18.6016C39.8516 19.3776 39.5651 19.9714 38.9922 20.3828C38.4245 20.7943 37.6198 21 36.5781 21H32.7578ZM34.2031 17.2891V19.8359H36.5938C37.1979 19.8359 37.6484 19.724 37.9453 19.5C38.2474 19.276 38.3984 18.9609 38.3984 18.5547C38.3984 17.7109 37.7786 17.2891 36.5391 17.2891H34.2031ZM34.2031 16.1328H36.0703C37.4245 16.1328 38.1016 15.737 38.1016 14.9453C38.1016 14.1536 37.4609 13.7448 36.1797 13.7188H34.2031V16.1328ZM47.2344 12.5469H48.6797V21H47.2344V14.8359L43.3359 21H41.8906V12.5469H43.3359V18.7188L47.2344 12.5469ZM57.9062 21H56.4609V17.3906H52.5781V21H51.125V12.5469H52.5781V16.2109H56.4609V12.5469H57.9062V21ZM62.8672 17.3984H61.8125V21H60.3594V12.5469H61.8125V16.125H62.7578L65.6016 12.5469H67.3516L64.0078 16.6094L67.6328 21H65.7969L62.8672 17.3984ZM74.3438 12.5469H75.7891V21H74.3438V14.8359L70.4453 21H69V12.5469H70.4453V18.7188L74.3438 12.5469Z" fill="#F2994A"/>
</svg>
