<svg width="40" height="40" viewBox="0 0 40 40" fill="none" xmlns="http://www.w3.org/2000/svg">
<circle cx="20" cy="20" r="20" fill="#F80909"/>
<g clip-path="url(#clip0)">
<path d="M32.2511 22.035L32.1185 19.6711L30.6754 21.548C30.5605 21.6974 30.3159 21.9617 30.0036 22.2026C30.127 21.7937 30.2372 21.3274 30.31 20.8131C30.5621 19.032 30.4051 16.2983 28.2266 13.3897L27.3126 12.1693L26.7136 13.5715C26.0227 15.1889 24.9049 16.0004 23.866 15.6387C23.0662 15.3604 22.4161 14.445 22.0826 13.1272C21.7715 11.898 21.5907 9.73502 22.4965 6.41064L22.8809 5L21.4545 5.32133C16.6431 6.4052 13.4009 9.82203 12.0784 15.2023C11.5224 17.464 11.4177 19.6067 11.4333 21.056C10.2965 20.1369 9.72876 19.3304 9.71388 19.3091L8.63101 17.7182L8.13776 19.581C7.86665 20.6049 7.72925 21.6641 7.72925 22.7292C7.72925 29.4448 13.1521 34.9166 19.8487 34.9981C19.8991 34.9994 19.9495 35.0001 20.0001 35.0001C20.0508 35.0001 20.1012 34.9994 20.1515 34.9981C26.8482 34.9166 32.271 29.4448 32.271 22.7292C32.271 22.5045 32.2643 22.2709 32.2511 22.035ZM20.0002 33.2407C17.7305 33.2407 15.884 31.3943 15.884 29.1246C15.884 25.1638 17.7571 23.3895 19.2171 22.608C19.0311 23.6136 19.196 24.5664 19.5059 25.2759C19.9678 26.3332 20.792 27.0258 21.7107 27.1285C22.0716 27.1687 22.6756 27.1375 23.3088 26.6768C23.8284 27.38 24.1163 28.2378 24.1163 29.1246C24.1163 31.3943 22.2698 33.2407 20.0002 33.2407ZM25.1969 31.8632C25.6298 31.045 25.8756 30.113 25.8756 29.1246C25.8756 27.459 25.1643 25.8651 23.9242 24.7517L23.2028 24.104L22.6281 24.8848C22.4818 25.0836 22.1932 25.4128 21.9062 25.3801C21.6787 25.3547 21.3467 25.0948 21.1182 24.5717C20.8022 23.8484 20.7381 22.705 21.5055 21.6652L22.7232 20.0151L20.6883 20.2701C20.6197 20.2787 18.9893 20.4946 17.3727 21.7096C14.6884 23.727 14.1249 26.8554 14.1249 29.1246C14.1249 30.1132 14.3707 31.0454 14.8039 31.8638C11.6318 30.0521 9.48876 26.6363 9.48876 22.7291C9.48876 22.3958 9.50446 22.0633 9.53563 21.7328C10.1289 22.2949 10.9332 22.9496 11.9571 23.5571L13.4856 24.4633L13.2795 22.698C13.2756 22.6637 12.8902 19.2304 13.798 15.5776C14.836 11.4005 17.0681 8.67143 20.4428 7.44512C19.9722 9.76906 19.9473 11.8605 20.3772 13.5589C20.8585 15.4604 21.9195 16.8241 23.2881 17.3002C24.2394 17.6312 25.2647 17.5082 26.1754 16.9538C26.6997 16.6347 27.1739 16.1806 27.5816 15.612C28.4624 17.1847 28.7975 18.8206 28.5786 20.4903C28.3716 22.0696 27.7216 23.1015 27.7172 23.1084L26.9646 24.2629L28.3286 24.4594C29.0154 24.5583 29.7325 24.4073 30.4329 24.0207C30.0193 27.3805 28.0138 30.2543 25.1969 31.8632Z" fill="white"/>
</g>
<defs>
<clipPath id="clip0">
<rect width="30" height="30" fill="white" transform="translate(5 5)"/>
</clipPath>
</defs>
</svg>
