<svg width="170" height="30" viewBox="0 0 170 30" fill="none" xmlns="http://www.w3.org/2000/svg">
<rect width="170" height="30" rx="5" fill="#D0FFE4"/>
<path d="M11.3203 21V9.625H15.0391C16.2734 9.625 17.2005 9.88021 17.8203 10.3906C18.4453 10.901 18.7578 11.6562 18.7578 12.6562C18.7578 13.1875 18.6068 13.6589 18.3047 14.0703C18.0026 14.4766 17.5911 14.7917 17.0703 15.0156C17.6849 15.1875 18.1693 15.5156 18.5234 16C18.8828 16.4792 19.0625 17.0521 19.0625 17.7188C19.0625 18.7396 18.7318 19.5417 18.0703 20.125C17.4089 20.7083 16.474 21 15.2656 21H11.3203ZM12.8203 15.6797V19.7734H15.2969C15.9948 19.7734 16.5443 19.5938 16.9453 19.2344C17.3516 18.8698 17.5547 18.3698 17.5547 17.7344C17.5547 16.3646 16.8099 15.6797 15.3203 15.6797H12.8203ZM12.8203 14.4766H15.0859C15.7422 14.4766 16.2656 14.3125 16.6562 13.9844C17.0521 13.6562 17.25 13.2109 17.25 12.6484C17.25 12.0234 17.0677 11.5703 16.7031 11.2891C16.3385 11.0026 15.7839 10.8594 15.0391 10.8594H12.8203V14.4766ZM22.6406 15.4609H24.8359C25.7943 15.4714 26.5521 15.7214 27.1094 16.2109C27.6667 16.7005 27.9453 17.3646 27.9453 18.2031C27.9453 19.0469 27.6589 19.724 27.0859 20.2344C26.513 20.7448 25.7422 21 24.7734 21H21.1953V12.5469H22.6406V15.4609ZM30.9609 21H29.5078V12.5469H30.9609V21ZM22.6406 16.6406V19.8203H24.7891C25.3307 19.8203 25.75 19.6823 26.0469 19.4062C26.3438 19.125 26.4922 18.7422 26.4922 18.2578C26.4922 17.7891 26.3464 17.4062 26.0547 17.1094C25.7682 16.8073 25.3646 16.651 24.8438 16.6406H22.6406ZM37.1953 13.0312C38.2578 13.0312 39.1068 13.388 39.7422 14.1016C40.3828 14.8099 40.7031 15.7448 40.7031 16.9062V17.0391C40.7031 17.8359 40.5495 18.5495 40.2422 19.1797C39.9349 19.8047 39.4922 20.2917 38.9141 20.6406C38.3411 20.9844 37.6797 21.1562 36.9297 21.1562C35.7943 21.1562 34.8802 20.7786 34.1875 20.0234C33.4948 19.263 33.1484 18.2448 33.1484 16.9688V16.2656C33.1484 14.4896 33.4766 13.0781 34.1328 12.0312C34.7943 10.9844 35.7682 10.3464 37.0547 10.1172C37.7839 9.98698 38.276 9.82812 38.5312 9.64062C38.7865 9.45312 38.9141 9.19531 38.9141 8.86719H40.1016C40.1016 9.51823 39.9531 10.026 39.6562 10.3906C39.3646 10.7552 38.8958 11.013 38.25 11.1641L37.1719 11.4062C36.3125 11.6094 35.6667 11.9531 35.2344 12.4375C34.8073 12.9167 34.5286 13.5573 34.3984 14.3594C35.1641 13.474 36.0964 13.0312 37.1953 13.0312ZM36.9141 14.2188C36.2057 14.2188 35.6432 14.4583 35.2266 14.9375C34.8099 15.4115 34.6016 16.0703 34.6016 16.9141V17.0391C34.6016 17.9453 34.8099 18.6641 35.2266 19.1953C35.6484 19.7214 36.2161 19.9844 36.9297 19.9844C37.6484 19.9844 38.2161 19.7188 38.6328 19.1875C39.0495 18.6562 39.2578 17.8802 39.2578 16.8594C39.2578 16.0625 39.0469 15.4245 38.625 14.9453C38.2083 14.4609 37.638 14.2188 36.9141 14.2188ZM41.9453 16.6953C41.9453 15.8672 42.1068 15.1224 42.4297 14.4609C42.7578 13.7995 43.2109 13.2891 43.7891 12.9297C44.3724 12.5703 45.0365 12.3906 45.7812 12.3906C46.9323 12.3906 47.862 12.7891 48.5703 13.5859C49.2839 14.3828 49.6406 15.4427 49.6406 16.7656V16.8672C49.6406 17.6901 49.4818 18.4297 49.1641 19.0859C48.8516 19.737 48.401 20.2448 47.8125 20.6094C47.2292 20.974 46.5573 21.1562 45.7969 21.1562C44.651 21.1562 43.7214 20.7578 43.0078 19.9609C42.2995 19.1641 41.9453 18.1094 41.9453 16.7969V16.6953ZM43.3984 16.8672C43.3984 17.8047 43.6146 18.5573 44.0469 19.125C44.4844 19.6927 45.0677 19.9766 45.7969 19.9766C46.5312 19.9766 47.1146 19.6901 47.5469 19.1172C47.9792 18.5391 48.1953 17.7318 48.1953 16.6953C48.1953 15.7682 47.974 15.0182 47.5312 14.4453C47.0938 13.8672 46.5104 13.5781 45.7812 13.5781C45.0677 13.5781 44.4922 13.862 44.0547 14.4297C43.6172 14.9974 43.3984 15.8099 43.3984 16.8672ZM58.5938 16.8672C58.5938 18.1536 58.2995 19.1901 57.7109 19.9766C57.1224 20.763 56.3255 21.1562 55.3203 21.1562C54.2943 21.1562 53.487 20.8307 52.8984 20.1797V24.25H51.4531V12.5469H52.7734L52.8438 13.4844C53.4323 12.7552 54.25 12.3906 55.2969 12.3906C56.3125 12.3906 57.1146 12.7734 57.7031 13.5391C58.2969 14.3047 58.5938 15.3698 58.5938 16.7344V16.8672ZM57.1484 16.7031C57.1484 15.75 56.9453 14.9974 56.5391 14.4453C56.1328 13.8932 55.5755 13.6172 54.8672 13.6172C53.9922 13.6172 53.3359 14.0052 52.8984 14.7812V18.8203C53.3307 19.5911 53.9922 19.9766 54.8828 19.9766C55.5755 19.9766 56.125 19.7031 56.5312 19.1562C56.9427 18.6042 57.1484 17.7865 57.1484 16.7031ZM71.3203 21H69.875V13.7422H65.9844V21H64.5312V12.5469H71.3203V21ZM73.2578 16.6953C73.2578 15.8672 73.4193 15.1224 73.7422 14.4609C74.0703 13.7995 74.5234 13.2891 75.1016 12.9297C75.6849 12.5703 76.349 12.3906 77.0938 12.3906C78.2448 12.3906 79.1745 12.7891 79.8828 13.5859C80.5964 14.3828 80.9531 15.4427 80.9531 16.7656V16.8672C80.9531 17.6901 80.7943 18.4297 80.4766 19.0859C80.1641 19.737 79.7135 20.2448 79.125 20.6094C78.5417 20.974 77.8698 21.1562 77.1094 21.1562C75.9635 21.1562 75.0339 20.7578 74.3203 19.9609C73.612 19.1641 73.2578 18.1094 73.2578 16.7969V16.6953ZM74.7109 16.8672C74.7109 17.8047 74.9271 18.5573 75.3594 19.125C75.7969 19.6927 76.3802 19.9766 77.1094 19.9766C77.8438 19.9766 78.4271 19.6901 78.8594 19.1172C79.2917 18.5391 79.5078 17.7318 79.5078 16.6953C79.5078 15.7682 79.2865 15.0182 78.8438 14.4453C78.4062 13.8672 77.8229 13.5781 77.0938 13.5781C76.3802 13.5781 75.8047 13.862 75.3672 14.4297C74.9297 14.9974 74.7109 15.8099 74.7109 16.8672ZM85.3984 17.3984H84.3438V21H82.8906V12.5469H84.3438V16.125H85.2891L88.1328 12.5469H89.8828L86.5391 16.6094L90.1641 21H88.3281L85.3984 17.3984ZM94.1719 18.8828L96.1406 12.5469H97.6875L94.2891 22.3047C93.763 23.7109 92.9271 24.4141 91.7812 24.4141L91.5078 24.3906L90.9688 24.2891V23.1172L91.3594 23.1484C91.849 23.1484 92.2292 23.0495 92.5 22.8516C92.776 22.6536 93.0026 22.2917 93.1797 21.7656L93.5 20.9062L90.4844 12.5469H92.0625L94.1719 18.8828ZM105.898 21H104.453V13.7422H100.562V21H99.1094V12.5469H105.898V21ZM113.438 21C113.354 20.8333 113.286 20.5365 113.234 20.1094C112.562 20.8073 111.76 21.1562 110.828 21.1562C109.995 21.1562 109.31 20.9219 108.773 20.4531C108.242 19.9792 107.977 19.3802 107.977 18.6562C107.977 17.776 108.31 17.0938 108.977 16.6094C109.648 16.1198 110.591 15.875 111.805 15.875H113.211V15.2109C113.211 14.7057 113.06 14.3047 112.758 14.0078C112.456 13.7057 112.01 13.5547 111.422 13.5547C110.906 13.5547 110.474 13.6849 110.125 13.9453C109.776 14.2057 109.602 14.5208 109.602 14.8906H108.148C108.148 14.4688 108.297 14.0625 108.594 13.6719C108.896 13.276 109.302 12.9635 109.812 12.7344C110.328 12.5052 110.893 12.3906 111.508 12.3906C112.482 12.3906 113.245 12.6354 113.797 13.125C114.349 13.6094 114.635 14.2786 114.656 15.1328V19.0234C114.656 19.7995 114.755 20.4167 114.953 20.875V21H113.438ZM111.039 19.8984C111.492 19.8984 111.922 19.7812 112.328 19.5469C112.734 19.3125 113.029 19.0078 113.211 18.6328V16.8984H112.078C110.307 16.8984 109.422 17.4167 109.422 18.4531C109.422 18.9062 109.573 19.2604 109.875 19.5156C110.177 19.7708 110.565 19.8984 111.039 19.8984ZM123.078 13.7188H120.242V21H118.797V13.7188H116.016V12.5469H123.078V13.7188ZM127.367 21.1562C126.221 21.1562 125.289 20.7812 124.57 20.0312C123.852 19.276 123.492 18.2682 123.492 17.0078V16.7422C123.492 15.9036 123.651 15.1562 123.969 14.5C124.292 13.8385 124.74 13.3229 125.312 12.9531C125.891 12.5781 126.516 12.3906 127.188 12.3906C128.286 12.3906 129.141 12.7526 129.75 13.4766C130.359 14.2005 130.664 15.237 130.664 16.5859V17.1875H124.938C124.958 18.0208 125.201 18.6953 125.664 19.2109C126.133 19.7214 126.727 19.9766 127.445 19.9766C127.956 19.9766 128.388 19.8724 128.742 19.6641C129.096 19.4557 129.406 19.1797 129.672 18.8359L130.555 19.5234C129.846 20.612 128.784 21.1562 127.367 21.1562ZM127.188 13.5781C126.604 13.5781 126.115 13.7917 125.719 14.2188C125.323 14.6406 125.078 15.2344 124.984 16H129.219V15.8906C129.177 15.1562 128.979 14.5885 128.625 14.1875C128.271 13.7812 127.792 13.5781 127.188 13.5781ZM139.273 12.5469V21H137.82V13.7422H134.945L134.773 16.9062C134.68 18.3594 134.435 19.3984 134.039 20.0234C133.648 20.6484 133.026 20.974 132.172 21H131.594V19.7266L132.008 19.6953C132.477 19.6432 132.812 19.3724 133.016 18.8828C133.219 18.3932 133.349 17.487 133.406 16.1641L133.562 12.5469H139.273ZM145.102 21.1562C143.956 21.1562 143.023 20.7812 142.305 20.0312C141.586 19.276 141.227 18.2682 141.227 17.0078V16.7422C141.227 15.9036 141.385 15.1562 141.703 14.5C142.026 13.8385 142.474 13.3229 143.047 12.9531C143.625 12.5781 144.25 12.3906 144.922 12.3906C146.021 12.3906 146.875 12.7526 147.484 13.4766C148.094 14.2005 148.398 15.237 148.398 16.5859V17.1875H142.672C142.693 18.0208 142.935 18.6953 143.398 19.2109C143.867 19.7214 144.461 19.9766 145.18 19.9766C145.69 19.9766 146.122 19.8724 146.477 19.6641C146.831 19.4557 147.141 19.1797 147.406 18.8359L148.289 19.5234C147.581 20.612 146.518 21.1562 145.102 21.1562ZM144.922 13.5781C144.339 13.5781 143.849 13.7917 143.453 14.2188C143.057 14.6406 142.812 15.2344 142.719 16H146.953V15.8906C146.911 15.1562 146.714 14.5885 146.359 14.1875C146.005 13.7812 145.526 13.5781 144.922 13.5781ZM155.547 12.5469H156.992V21H155.547V14.8359L151.648 21H150.203V12.5469H151.648V18.7188L155.547 12.5469ZM155.938 9.46875C155.938 10.099 155.721 10.6068 155.289 10.9922C154.862 11.3724 154.299 11.5625 153.602 11.5625C152.904 11.5625 152.339 11.3698 151.906 10.9844C151.474 10.599 151.258 10.0938 151.258 9.46875H152.438C152.438 9.83333 152.536 10.1198 152.734 10.3281C152.932 10.5312 153.221 10.6328 153.602 10.6328C153.966 10.6328 154.25 10.5312 154.453 10.3281C154.661 10.125 154.766 9.83854 154.766 9.46875H155.938Z" fill="#27AE60"/>
</svg>
