<svg width="118" height="37" viewBox="0 0 118 37" fill="none" xmlns="http://www.w3.org/2000/svg">
<path d="M19.4541 22.0068H28.2139V24H17.0039V5.51562H19.4541V22.0068ZM41.4424 15.4561H33.4316V22.0068H42.7373V24H30.9941V5.51562H42.6104V7.52148H33.4316V13.4629H41.4424V15.4561ZM45.7715 24V5.51562H50.9893C52.5973 5.51562 54.0192 5.87109 55.2549 6.58203C56.4906 7.29297 57.4427 8.30436 58.1113 9.61621C58.7884 10.9281 59.1312 12.4346 59.1396 14.1357V15.3164C59.1396 17.0599 58.8011 18.5876 58.124 19.8994C57.4554 21.2113 56.4948 22.2184 55.2422 22.9209C53.998 23.6234 52.5465 23.9831 50.8877 24H45.7715ZM48.209 7.52148V22.0068H50.7734C52.6523 22.0068 54.1123 21.4229 55.1533 20.2549C56.2028 19.0869 56.7275 17.4238 56.7275 15.2656V14.1865C56.7275 12.0876 56.2324 10.4583 55.2422 9.29883C54.2604 8.13086 52.8639 7.53841 51.0527 7.52148H48.209ZM75.25 7.52148H69.3086V24H66.8838V7.52148H60.9551V5.51562H75.25V7.52148ZM84.6572 24C84.5218 23.7292 84.4118 23.2467 84.3271 22.5527C83.2354 23.6868 81.932 24.2539 80.417 24.2539C79.0628 24.2539 77.9499 23.873 77.0781 23.1113C76.2148 22.3411 75.7832 21.3678 75.7832 20.1914C75.7832 18.7611 76.3249 17.6523 77.4082 16.8652C78.5 16.0697 80.0319 15.6719 82.0039 15.6719H84.2891V14.5928C84.2891 13.7718 84.0436 13.1201 83.5527 12.6377C83.0618 12.1468 82.3382 11.9014 81.3818 11.9014C80.5439 11.9014 79.8415 12.113 79.2744 12.5361C78.7074 12.9593 78.4238 13.4714 78.4238 14.0723H76.0625C76.0625 13.3867 76.3037 12.7266 76.7861 12.0918C77.277 11.4486 77.9372 10.9408 78.7666 10.5684C79.6045 10.196 80.5228 10.0098 81.5215 10.0098C83.1042 10.0098 84.3441 10.4076 85.2412 11.2031C86.1383 11.9902 86.6038 13.0778 86.6377 14.4658V20.7881C86.6377 22.0492 86.7985 23.0521 87.1201 23.7969V24H84.6572ZM80.7598 22.21C81.4961 22.21 82.1943 22.0195 82.8545 21.6387C83.5146 21.2578 83.9928 20.7627 84.2891 20.1533V17.335H82.4482C79.5706 17.335 78.1318 18.1771 78.1318 19.8613C78.1318 20.5977 78.3773 21.1732 78.8682 21.5879C79.359 22.0026 79.9896 22.21 80.7598 22.21ZM101.948 17.2842C101.948 19.3831 101.466 21.0716 100.501 22.3496C99.5361 23.6191 98.2412 24.2539 96.6162 24.2539C94.8812 24.2539 93.5397 23.6403 92.5918 22.4131L92.4775 24H90.3193V4.5H92.668V11.7744C93.6159 10.598 94.9235 10.0098 96.5908 10.0098C98.2581 10.0098 99.5658 10.6403 100.514 11.9014C101.47 13.1624 101.948 14.889 101.948 17.0811V17.2842ZM99.5996 17.0176C99.5996 15.418 99.2907 14.1823 98.6729 13.3105C98.055 12.4388 97.1663 12.0029 96.0068 12.0029C94.458 12.0029 93.3451 12.7223 92.668 14.1611V20.1025C93.3874 21.5413 94.5088 22.2607 96.0322 22.2607C97.1579 22.2607 98.0339 21.8249 98.6602 20.9531C99.2865 20.0814 99.5996 18.7695 99.5996 17.0176Z" fill="black"/>
</svg>
